<svg width="483" height="456" viewBox="0 0 483 456" fill="none" xmlns="http://www.w3.org/2000/svg">
<line x1="2.5" y1="6.00005" x2="2.49998" y2="455.015" stroke="black" stroke-width="5"/>
<line y1="3.50005" x2="38.1502" y2="3.50005" stroke="black" stroke-width="5"/>
<line y1="452.515" x2="38.1502" y2="452.515" stroke="black" stroke-width="5"/>
<line x1="226.65" y1="450.015" x2="226.65" y2="0.999999" stroke="black" stroke-width="5"/>
<line x1="229.15" y1="452.515" x2="191" y2="452.515" stroke="black" stroke-width="5"/>
<line x1="229.15" y1="3.5" x2="191" y2="3.49999" stroke="black" stroke-width="5"/>
<line x1="254.291" y1="5.90482" x2="254.291" y2="264" stroke="black" stroke-width="5"/>
<line x1="251.791" y1="3.40482" x2="272.359" y2="3.40482" stroke="black" stroke-width="5"/>
<line x1="251.791" y1="261.5" x2="272.359" y2="261.5" stroke="black" stroke-width="5"/>
<line x1="480.068" y1="259.095" x2="480.068" y2="1" stroke="black" stroke-width="5"/>
<line x1="482.568" y1="261.595" x2="462" y2="261.595" stroke="black" stroke-width="5"/>
<line x1="482.568" y1="3.5" x2="462" y2="3.5" stroke="black" stroke-width="5"/>
<line x1="38.1501" y1="58.3761" x2="190.751" y2="58.3761" stroke="black" stroke-width="2"/>
<line x1="38.1501" y1="405.874" x2="190.751" y2="405.874" stroke="black" stroke-width="2"/>
<line x1="38.1501" y1="284.836" x2="190.751" y2="284.836" stroke="black" stroke-width="2"/>
<line x1="38.1501" y1="171.606" x2="190.751" y2="171.606" stroke="black" stroke-width="2"/>
<line x1="445.449" y1="22.0358" x2="445.449" y2="227.57" stroke="black" stroke-width="2"/>
<line x1="290.941" y1="22.0358" x2="290.941" y2="227.57" stroke="black" stroke-width="2"/>
<line x1="344.759" y1="22.0358" x2="344.759" y2="227.57" stroke="black" stroke-width="2"/>
<line x1="395.104" y1="22.0358" x2="395.104" y2="227.57" stroke="black" stroke-width="2"/>
</svg>
