<svg width="410" height="517" viewBox="0 0 410 517" fill="none" xmlns="http://www.w3.org/2000/svg">
<circle cx="18.9815" cy="18.9815" r="18.9815" fill="black"/>
<circle cx="18.9815" cy="497.315" r="18.9815" fill="black"/>
<circle cx="18.9815" cy="417.593" r="18.9815" fill="black"/>
<circle cx="18.9815" cy="337.87" r="18.9815" fill="black"/>
<circle cx="18.9815" cy="258.148" r="18.9815" fill="black"/>
<circle cx="18.9815" cy="178.426" r="18.9815" fill="black"/>
<circle cx="18.9815" cy="98.7037" r="18.9815" fill="black"/>
<circle cx="205" cy="178.426" r="18.9815" fill="black"/>
<circle cx="205" cy="258.148" r="18.9815" fill="black"/>
<circle cx="205" cy="337.87" r="18.9815" fill="black"/>
<circle cx="391.019" cy="18.9815" r="18.9815" fill="black"/>
<circle cx="391.018" cy="497.315" r="18.9815" fill="black"/>
<circle cx="391.018" cy="417.593" r="18.9815" fill="black"/>
<circle cx="391.018" cy="337.87" r="18.9815" fill="black"/>
<circle cx="391.018" cy="258.148" r="18.9815" fill="black"/>
<circle cx="391.018" cy="178.426" r="18.9815" fill="black"/>
<circle cx="391.018" cy="98.7037" r="18.9815" fill="black"/>
<line x1="19.6322" y1="18.2222" x2="205.651" y2="177.667" stroke="black" stroke-width="2"/>
<line x1="19.3754" y1="97.7846" x2="205.394" y2="177.507" stroke="black" stroke-width="2"/>
<line x1="18.9814" y1="177.426" x2="205" y2="177.426" stroke="black" stroke-width="2"/>
<line x1="18.5875" y1="257.229" x2="204.606" y2="177.507" stroke="black" stroke-width="2"/>
<line x1="18.3307" y1="337.111" x2="204.349" y2="177.667" stroke="black" stroke-width="2"/>
<line x1="18.1921" y1="416.979" x2="204.211" y2="177.812" stroke="black" stroke-width="2"/>
<line x1="18.1177" y1="496.811" x2="204.136" y2="177.922" stroke="black" stroke-width="2"/>
<line x1="19.7708" y1="18.3675" x2="205.789" y2="257.534" stroke="black" stroke-width="2"/>
<line x1="19.6322" y1="97.9444" x2="205.651" y2="257.389" stroke="black" stroke-width="2"/>
<line x1="19.3754" y1="177.507" x2="205.394" y2="257.229" stroke="black" stroke-width="2"/>
<line x1="18.9814" y1="257.148" x2="205" y2="257.148" stroke="black" stroke-width="2"/>
<line x1="18.3307" y1="496.556" x2="204.349" y2="337.111" stroke="black" stroke-width="2"/>
<line x1="18.5875" y1="336.951" x2="204.606" y2="257.229" stroke="black" stroke-width="2"/>
<line x1="18.3307" y1="416.833" x2="204.349" y2="257.389" stroke="black" stroke-width="2"/>
<line x1="18.1921" y1="496.701" x2="204.211" y2="257.534" stroke="black" stroke-width="2"/>
<line x1="19.8452" y1="18.4776" x2="205.864" y2="337.366" stroke="black" stroke-width="2"/>
<line x1="19.7708" y1="98.0898" x2="205.789" y2="337.256" stroke="black" stroke-width="2"/>
<line x1="19.6322" y1="177.667" x2="205.651" y2="337.111" stroke="black" stroke-width="2"/>
<line x1="19.3754" y1="257.229" x2="205.394" y2="336.951" stroke="black" stroke-width="2"/>
<line x1="18.9814" y1="336.87" x2="205" y2="336.87" stroke="black" stroke-width="2"/>
<line x1="18.5875" y1="416.673" x2="204.606" y2="336.951" stroke="black" stroke-width="2"/>
<line x1="390.368" y1="498.074" x2="204.349" y2="338.63" stroke="black" stroke-width="2"/>
<line x1="390.625" y1="418.512" x2="204.606" y2="338.789" stroke="black" stroke-width="2"/>
<line x1="391.019" y1="338.87" x2="205" y2="338.87" stroke="black" stroke-width="2"/>
<line x1="391.412" y1="259.067" x2="205.394" y2="338.789" stroke="black" stroke-width="2"/>
<line x1="391.669" y1="179.185" x2="205.651" y2="338.63" stroke="black" stroke-width="2"/>
<line x1="391.808" y1="99.3176" x2="205.789" y2="338.484" stroke="black" stroke-width="2"/>
<line x1="391.882" y1="19.4853" x2="205.864" y2="338.374" stroke="black" stroke-width="2"/>
<line x1="390.229" y1="497.929" x2="204.211" y2="258.762" stroke="black" stroke-width="2"/>
<line x1="390.368" y1="418.352" x2="204.349" y2="258.907" stroke="black" stroke-width="2"/>
<line x1="390.625" y1="338.79" x2="204.606" y2="259.067" stroke="black" stroke-width="2"/>
<line x1="391.019" y1="259.148" x2="205" y2="259.148" stroke="black" stroke-width="2"/>
<line x1="391.669" y1="19.7407" x2="205.651" y2="179.185" stroke="black" stroke-width="2"/>
<line x1="391.412" y1="179.345" x2="205.394" y2="259.067" stroke="black" stroke-width="2"/>
<line x1="391.669" y1="99.463" x2="205.651" y2="258.907" stroke="black" stroke-width="2"/>
<line x1="391.808" y1="19.5954" x2="205.789" y2="258.762" stroke="black" stroke-width="2"/>
<line x1="390.155" y1="497.819" x2="204.136" y2="178.93" stroke="black" stroke-width="2"/>
<line x1="390.229" y1="418.207" x2="204.211" y2="179.04" stroke="black" stroke-width="2"/>
<line x1="390.368" y1="338.63" x2="204.349" y2="179.185" stroke="black" stroke-width="2"/>
<line x1="390.625" y1="259.067" x2="204.606" y2="179.345" stroke="black" stroke-width="2"/>
<line x1="391.019" y1="179.426" x2="205" y2="179.426" stroke="black" stroke-width="2"/>
<line x1="391.412" y1="99.6228" x2="205.394" y2="179.345" stroke="black" stroke-width="2"/>
</svg>
